<?xml version="1.0" encoding="UTF-8" standalone="no"?>
<svg
   xmlns:dc="http://purl.org/dc/elements/1.1/"
   xmlns:cc="http://creativecommons.org/ns#"
   xmlns:rdf="http://www.w3.org/1999/02/22-rdf-syntax-ns#"
   xmlns:svg="http://www.w3.org/2000/svg"
   xmlns="http://www.w3.org/2000/svg"
   xmlns:sodipodi="http://sodipodi.sourceforge.net/DTD/sodipodi-0.dtd"
   xmlns:inkscape="http://www.inkscape.org/namespaces/inkscape"
   version="1.1"
   id="svg942"
   width="105"
   height="55"
   viewBox="0 0 105 55"
   sodipodi:docname="logo_sakan_small.svg"
   inkscape:version="1.0.2 (e86c8708, 2021-01-15)">
  <sodipodi:namedview
     pagecolor="#ffffff"
     bordercolor="#666666"
     borderopacity="1"
     objecttolerance="10"
     gridtolerance="10"
     guidetolerance="10"
     inkscape:pageopacity="0"
     inkscape:pageshadow="2"
     inkscape:window-width="1280"
     inkscape:window-height="729"
     id="namedview1728"
     showgrid="false"
     inkscape:zoom="2.5124006"
     inkscape:cx="56.301936"
     inkscape:cy="48.087737"
     inkscape:window-x="0"
     inkscape:window-y="23"
     inkscape:window-maximized="0"
     inkscape:current-layer="g950"
     inkscape:document-rotation="0" />
  <metadata
     id="metadata948">
    <rdf:RDF>
      <cc:Work
         rdf:about="">
        <dc:format>image/svg+xml</dc:format>
        <dc:type
           rdf:resource="http://purl.org/dc/dcmitype/StillImage" />
        <dc:title />
      </cc:Work>
    </rdf:RDF>
  </metadata>
  <defs
     id="defs946" />
  <g
     id="g950"
     transform="translate(0.50796754,-52.828624)">
    <path
       style="opacity:1;fill:#183248;fill-opacity:1;stroke:none;stroke-width:1px;stroke-linecap:butt;stroke-linejoin:miter;stroke-opacity:1"
       d="M 6.0953581,94.476095 C 11.214282,89.531021 21.452071,79.640929 31.689891,69.75081 c 0,0 19.602119,19.694872 19.602119,19.694872 0,0 19.933045,-19.933046 19.933045,-19.933046 0,0 30.591745,30.345529 30.591745,30.345529 -4.749872,-0.99648 -9.49785,-1.99256 -13.815984,-2.74 -4.318135,-0.74745 -8.204308,-1.24567 -12.970865,-1.71075 -4.766559,-0.46507 -10.413134,-0.89687 -15.229517,-1.12944 -4.816384,-0.23257 -8.802201,-0.26578 -13.651829,-0.0998 -4.849628,0.16603 -10.562632,0.5314 -15.860665,1.0296 -5.298034,0.4982 -10.18066,1.12929 -14.996567,1.85362 -4.815908,0.72434 -9.5647229,1.54192 -11.9398309,1.95082 -2.37510726,0.40891 -2.37510726,0.40891 2.743816,-4.53617 z"
       id="path1515" />
    <path
       style="fill:#ee5d3f;fill-opacity:1;stroke:none;stroke-width:1px;stroke-linecap:butt;stroke-linejoin:miter;stroke-opacity:1"
       d="M 33.596153,71.749825 51.175589,54.519649 68.634517,72.142983 51.29201,89.445682 Z"
       id="path1533" />
    <circle
       style="opacity:1;fill:#f7c4ab;fill-opacity:1;stroke:none;stroke-width:3.40001;stroke-dasharray:3.40001, 13.6;stroke-opacity:1;paint-order:markers fill stroke"
       id="path1535"
       cx="50.827618"
       cy="67.01181"
       r="2.3667963" />
    <path
       style="fill:#ffffff;fill-opacity:1;stroke:none;stroke-width:1px;stroke-linecap:butt;stroke-linejoin:miter;stroke-opacity:1"
       d="M 66.686557,79.351908 H 70.4301 v 3.609844 h -3.810392 z"
       id="path1537" />
    <path
       style="fill:#ffffff;fill-opacity:1;stroke:none;stroke-width:1px;stroke-linecap:butt;stroke-linejoin:miter;stroke-opacity:1"
       d="m 71.448725,79.354246 h 3.743543 v 3.609845 h -3.810393 z"
       id="path1537-9" />
    <path
       style="fill:#ffffff;fill-opacity:1;stroke:none;stroke-width:1px;stroke-linecap:butt;stroke-linejoin:miter;stroke-opacity:1"
       d="m 71.403476,84.014718 h 3.743543 v 3.609845 h -3.810392 z"
       id="path1537-9-0" />
    <path
       style="fill:#ffffff;fill-opacity:1;stroke:none;stroke-width:1px;stroke-linecap:butt;stroke-linejoin:miter;stroke-opacity:1"
       d="m 66.652513,84.014718 h 3.743543 v 3.609845 h -3.810392 z"
       id="path1537-9-0-2" />
    <path
       style="fill:#ffffff;fill-opacity:1;stroke:none;stroke-width:1px;stroke-linecap:butt;stroke-linejoin:miter;stroke-opacity:1"
       d="m 26.708806,80.073362 h 3.743542 v 3.609844 h -3.810392 z"
       id="path1537-3" />
    <path
       style="fill:#ffffff;fill-opacity:1;stroke:none;stroke-width:1px;stroke-linecap:butt;stroke-linejoin:miter;stroke-opacity:1"
       d="m 31.470973,80.0757 h 3.743543 v 3.609845 h -3.810392 z"
       id="path1537-9-9" />
    <path
       style="fill:#ffffff;fill-opacity:1;stroke:none;stroke-width:1px;stroke-linecap:butt;stroke-linejoin:miter;stroke-opacity:1"
       d="m 31.425725,84.736172 h 3.743543 v 3.609845 h -3.810393 z"
       id="path1537-9-0-9" />
    <path
       style="fill:#ffffff;fill-opacity:1;stroke:none;stroke-width:1px;stroke-linecap:butt;stroke-linejoin:miter;stroke-opacity:1"
       d="m 26.674761,84.736172 h 3.743543 v 3.609845 h -3.810392 z"
       id="path1537-9-0-2-7" />
    <path
       style="fill:#1c374a;fill-opacity:1;stroke:none;stroke-width:1px;stroke-linecap:butt;stroke-linejoin:miter;stroke-opacity:1"
       d="m 23.710019,74.463854 6.507609,-6.307995 -0.09456,-8.320999 h -6.52442 z"
       id="path1631" />
    <g
       aria-label="SAKAN"
       id="text1635"
       style="font-style:normal;font-variant:normal;font-weight:bold;font-stretch:normal;font-size:8px;line-height:1.25;font-family:Baskerville;-inkscape-font-specification:'Baskerville Bold';letter-spacing:0.78px;fill:#183248;fill-opacity:1;stroke-width:0.616222"
       transform="matrix(1.6227914,0,0,1.6227914,-0.19452506,-9.6068924)">
      <path
         d="m 17.341636,71.456757 -0.188853,-1.784533 c 0.152324,-0.01605 0.30467,-0.03193 0.457036,-0.04765 0.1822,0.520366 0.411092,0.88206 0.686538,1.085162 0.275544,0.203176 0.558908,0.290748 0.851371,0.262787 0.216825,-0.02073 0.383294,-0.102373 0.499789,-0.245364 0.116474,-0.142967 0.166749,-0.303043 0.150366,-0.480333 -0.01163,-0.125901 -0.06376,-0.24809 -0.156627,-0.366455 -0.09281,-0.11829 -0.29884,-0.240564 -0.618522,-0.365374 -0.617157,-0.23971 -1.033119,-0.41309 -1.255043,-0.528818 -0.220533,-0.11743 -0.404678,-0.277147 -0.552384,-0.479427 -0.14769,-0.202259 -0.23663,-0.443035 -0.26621,-0.722496 -0.04749,-0.448649 0.0736,-0.835063 0.365801,-1.158542 0.294435,-0.326225 0.655951,-0.511006 1.082789,-0.553011 0.447553,-0.04404 0.842536,0.06904 1.182544,0.338325 0.04462,-0.08184 0.0765,-0.20397 0.09567,-0.366373 0.148901,-0.01361 0.297844,-0.02704 0.446826,-0.04028 l 0.136489,1.542387 c -0.143857,0.01275 -0.287689,0.02567 -0.431493,0.03876 -0.108118,-0.334808 -0.280519,-0.602745 -0.517786,-0.803441 -0.237218,-0.200654 -0.491937,-0.287813 -0.762928,-0.261332 -0.203898,0.01993 -0.360889,0.09262 -0.470741,0.217688 -0.107292,0.12483 -0.152229,0.271977 -0.135182,0.441348 0.01317,0.130882 0.064,0.248877 0.152298,0.354076 0.08804,0.102636 0.201111,0.184664 0.339192,0.246216 0.139602,0.05974 0.426166,0.165757 0.869045,0.324476 0.395679,0.144119 0.690494,0.279672 0.884394,0.404745 0.194061,0.125176 0.352662,0.291336 0.475907,0.498246 0.125575,0.204129 0.198786,0.43098 0.22024,0.680409 0.03981,0.462847 -0.09555,0.862776 -0.40342,1.200895 -0.308115,0.335567 -0.692246,0.524521 -1.154901,0.568381 -0.264044,0.02503 -0.528474,-0.0064 -0.793954,-0.09418 -0.262952,-0.08805 -0.479751,-0.217767 -0.650374,-0.389605 -0.04614,0.121366 -0.07439,0.266821 -0.08482,0.436393 -0.151024,0.01547 -0.302044,0.03111 -0.453059,0.04691 z"
         id="path1637"
         style="stroke-width:0.616222" />
      <path
         d="m 23.126893,69.60731 c -0.02674,0.08863 -0.05343,0.177277 -0.08006,0.265925 -0.05757,0.187915 -0.08344,0.319345 -0.07794,0.393948 0.0093,0.126142 0.05751,0.211872 0.144512,0.257297 0.08684,0.04286 0.224713,0.05743 0.413829,0.04414 l 0.03013,0.428734 c -0.563225,0.03958 -1.126608,0.08219 -1.690085,0.127617 l -0.03466,-0.42836 c 0.32282,-0.02604 0.571483,-0.327458 0.749448,-0.905281 0.425906,-1.392638 0.865131,-2.783812 1.318946,-4.17297 0.152276,-0.01 0.304585,-0.01976 0.456925,-0.02929 0.638198,1.317857 1.262138,2.639543 1.870397,3.964848 0.180388,0.393846 0.335951,0.628926 0.46854,0.705168 0.132431,0.07364 0.257653,0.107766 0.376012,0.102316 l 0.0196,0.429218 c -0.844699,0.03896 -1.690046,0.08578 -2.535829,0.139727 l -0.02729,-0.428911 c 0.22941,-0.01463 0.370389,-0.04512 0.423247,-0.09234 0.05266,-0.04975 0.07693,-0.109391 0.07275,-0.178959 -0.0037,-0.06182 -0.03132,-0.141642 -0.08292,-0.239348 -0.01886,-0.03894 -0.03773,-0.07787 -0.05661,-0.116798 -0.05712,-0.124517 -0.114379,-0.249003 -0.171761,-0.373458 -0.529049,0.03284 -1.058121,0.06849 -1.587166,0.106772 z m 0.131975,-0.455907 c 0.418584,-0.02986 0.837211,-0.05806 1.255858,-0.08451 -0.24798,-0.508075 -0.4982,-1.015567 -0.750575,-1.522461 -0.17051,0.53539 -0.338913,1.071058 -0.505283,1.606971 z"
         id="path1639"
         style="stroke-width:0.616222" />
      <path
         d="m 29.813819,68.618831 0.02413,1.001735 c 0.0058,0.242344 0.04901,0.409037 0.129142,0.499974 0.08268,0.09092 0.255866,0.133219 0.519721,0.12808 l 0.0081,0.429302 c -0.885146,0.01733 -1.771318,0.04442 -2.658273,0.08043 l -0.0172,-0.429269 c 0.02643,-0.0011 0.05286,-0.0021 0.07929,-0.0032 0.25673,-0.01025 0.421016,-0.06388 0.493225,-0.162051 0.07457,-0.100756 0.10796,-0.268492 0.09981,-0.503092 l -0.107731,-3.101785 c -0.0083,-0.239817 -0.05557,-0.404646 -0.142086,-0.494562 -0.08397,-0.09255 -0.256182,-0.134241 -0.516292,-0.124055 -0.02731,0.0011 -0.05462,0.0021 -0.08193,0.0032 l -0.0172,-0.429269 c 0.943216,-0.03744 1.88732,-0.06506 2.832052,-0.08197 l 0.0079,0.4293 c -0.02865,5.15e-4 -0.0573,0.001 -0.08595,0.0016 -0.263036,0.0049 -0.433844,0.05784 -0.512199,0.157663 -0.07584,0.09722 -0.110759,0.263118 -0.105107,0.497789 l 0.03522,1.461992 c 0.459388,-0.447111 0.923644,-0.891566 1.393061,-1.333151 0.245656,-0.23001 0.368767,-0.41637 0.367394,-0.560894 -0.0015,-0.159683 -0.159751,-0.238633 -0.475112,-0.234539 l -0.0057,-0.429275 c 0.784227,-0.01011 1.568847,-0.0127 2.353711,-0.0072 l -0.0028,0.429074 c -0.213727,-0.0015 -0.43823,0.05172 -0.672521,0.159738 -0.233859,0.107823 -0.566193,0.359862 -0.989465,0.757286 -0.157865,0.148154 -0.315139,0.296639 -0.471834,0.445446 0.488854,0.708536 0.969146,1.419813 1.440284,2.133797 0.237541,0.360977 0.430922,0.599841 0.583553,0.716703 0.155041,0.114209 0.361236,0.172218 0.619261,0.174998 l -0.0049,0.429001 c -0.971903,-0.01037 -1.945436,-0.0076 -2.920273,0.0073 l -0.0062,-0.429282 c 0.381591,-0.0058 0.57182,-0.08569 0.570299,-0.243175 -6.46e-4,-0.06687 -0.08,-0.21596 -0.239221,-0.445974 -0.331488,-0.480748 -0.667095,-0.960212 -1.006627,-1.438379 -0.173199,0.168534 -0.345697,0.337453 -0.517509,0.506745 z"
         id="path1641"
         style="stroke-width:0.616222" />
      <path
         d="m 35.498241,69.275284 c -0.03506,0.08542 -0.07003,0.170868 -0.104928,0.256331 -0.07506,0.181034 -0.113254,0.30914 -0.11504,0.383744 -0.003,0.126187 0.03622,0.215979 0.117529,0.269514 0.08141,0.05098 0.215738,0.0788 0.403261,0.08416 l -0.01246,0.428678 c -0.55767,-0.01588 -1.115948,-0.02716 -1.674771,-0.03406 l 0.0056,-0.428977 c 0.320605,0.004 0.593751,-0.272076 0.8248,-0.829119 0.553881,-1.342844 1.127561,-2.680893 1.722309,-4.013592 0.153259,0.0056 0.306521,0.01145 0.459784,0.01767 0.502323,1.373506 0.982988,2.750239 1.440572,4.129989 0.135621,0.409996 0.263166,0.659928 0.385319,0.74996 0.122264,0.08743 0.241626,0.134958 0.358588,0.142567 l -0.02788,0.427754 c -0.833521,-0.0542 -1.668705,-0.09701 -2.505343,-0.129149 l 0.01667,-0.428458 c 0.227266,0.0087 0.369064,-0.007 0.425968,-0.04841 0.05694,-0.04395 0.087,-0.100623 0.09006,-0.170085 0.0027,-0.06172 -0.01622,-0.143784 -0.057,-0.246046 -0.01457,-0.04058 -0.02916,-0.08115 -0.04378,-0.121725 -0.04351,-0.129435 -0.08721,-0.258845 -0.131102,-0.388229 -0.525653,-0.02161 -1.051719,-0.03906 -1.578147,-0.05252 z m 0.175032,-0.439868 c 0.417049,0.01135 0.8339,0.02521 1.250527,0.04166 -0.193343,-0.529526 -0.390064,-1.058553 -0.590076,-1.587068 -0.223191,0.514376 -0.443317,1.029521 -0.660451,1.545405 z"
         id="path1643"
         style="stroke-width:0.616222" />
      <path
         d="m 41.551662,67.275828 -0.208356,2.39693 c -0.03344,0.384651 0.01256,0.638186 0.136756,0.76032 0.126841,0.122511 0.295237,0.193444 0.505846,0.21358 l -0.04065,0.426773 C 41.31772,71.013398 40.689104,70.960329 40.059499,70.91391 l 0.03152,-0.427493 c 0.161554,0.01191 0.304895,-0.0171 0.430528,-0.0873 0.125823,-0.07276 0.209348,-0.160244 0.250297,-0.262838 0.04113,-0.105096 0.07112,-0.271944 0.08974,-0.500268 l 0.217123,-2.663527 c 0.04326,-0.530668 -0.186541,-0.818239 -0.69301,-0.855441 l 0.0314,-0.427502 c 0.599219,0.04402 1.198324,0.09361 1.797247,0.149009 0.872936,1.153821 1.711591,2.320139 2.512372,3.498984 l 0.239973,-1.905684 c 0.0714,-0.567015 -0.134527,-0.882542 -0.622022,-0.939498 l 0.04999,-0.425953 c 0.636275,0.07426 1.272254,0.155403 1.907857,0.243705 l -0.0595,0.425041 c -0.132451,-0.01843 -0.262116,2.83e-4 -0.388547,0.05607 -0.123849,0.05614 -0.213819,0.137836 -0.270105,0.24477 -0.05597,0.104431 -0.09778,0.262591 -0.125751,0.474685 l -0.526105,3.989331 c -0.156717,-0.02088 -0.313512,-0.04129 -0.470384,-0.06122 -0.917609,-1.404829 -1.88976,-2.792466 -2.910452,-4.162948 z"
         id="path1645"
         style="stroke-width:0.616222" />
    </g>
  </g>
</svg>
